#!OML:ASF F:\VICON\USERDATA\INSTALL\Justin_Nancy\Justin_Nancy.ASF
:FULLY-SPECIFIED
:DEGREES
345
root 1.06975 17.3225 1.68154 -0.940117 0.122773 5.01117
lowerback 7.31047 -0.504018 -4.19697
upperback 0.478589 -0.980947 0.941627
thorax -3.51888 -0.415559 3.43755
lowerneck -16.8867 -3.22229 -9.18554
upperneck 21.5476 -3.19933 5.02989
head 9.87046 -1.66558 2.86573
rclavicle 1.39646e-014 -7.15625e-015
rhumerus -31.3631 -14.6877 -78.915
rradius 34.7139
rwrist 4.39501
rhand -15.5391 11.3241
rfingers 7.12502
rthumb 10.6448 -18.3862
lclavicle 1.39646e-014 -7.15625e-015
lhumerus -28.9327 9.38706 83.4058
lradius 21.1061
lwrist -15.0437
lhand -11.4911 26.9401
lfingers 7.12502
lthumb 14.5474 56.41
rfemur -29.1993 -3.81287 16.8695
rtibia 63.8429
rfoot -10.489 -11.0888
rtoes -9.35731
lfemur -8.1246 -1.68689 -30.2762
ltibia 31.2379
lfoot -16.3977 2.3916
ltoes 2.992
346
root 1.06413 17.3161 1.85291 -0.993795 0.306268 5.29024
lowerback 7.50511 -0.605472 -4.60132
upperback 0.526106 -1.15693 0.961769
thorax -3.55458 -0.496495 3.70786
lowerneck -17.0554 -3.21122 -9.31415
upperneck 21.5011 -3.15054 5.1133
head 9.88538 -1.64135 2.92206
rclavicle 1.37161e-014 -3.33958e-014
rhumerus -31.5705 -14.6326 -78.8113
rradius 34.4505
rwrist 4.65645
rhand -15.6676 11.7419
rfingers 7.12502
rthumb 10.5209 -17.9748
lclavicle 1.37161e-014 -3.33958e-014
lhumerus -28.2032 8.70745 83.7181
lradius 21.0872
lwrist -14.8032
lhand -12.1649 26.0353
lfingers 7.12502
lthumb 13.8981 55.5509
rfemur -29.8675 -3.67241 16.6091
rtibia 61.9936
rfoot -10.5734 -11.5951
rtoes -4.54417
lfemur -7.16625 -1.46314 -30.5598
ltibia 30.8099
lfoot -16.6529 2.19292
ltoes 3.03862
347
root 1.05856 17.3095 2.03111 -0.932874 0.58403 5.26861
lowerback 7.59261 -0.739501 -4.62125
upperback 0.419233 -1.34126 1.01367
thorax -3.69524 -0.581445 3.79557
lowerneck -16.7653 -3.14637 -9.44244
upperneck 21.3472 -3.10041 5.32
head 9.77738 -1.60688 3.02299
rclavicle -6.70898e-015 3.97569e-015
rhumerus -32.0386 -14.6848 -78.6604
rradius 34.1772
rwrist 5.08642
rhand -15.8401 12.0039
rfingers 7.12502
rthumb 10.3544 -17.7212
lclavicle -6.70898e-015 3.97569e-015
lhumerus -27.933 7.9939 83.9554
lradius 21.5043
lwrist -14.4913
lhand -12.789 25.3654
lfingers 7.12502
lthumb 13.2966 54.9212
rfemur -30.4732 -3.62975 16.6834
rtibia 59.9219
rfoot -10.4341 -12.4217
rtoes -0.233471
lfemur -6.24416 -1.3612 -30.5124
ltibia 30.2806
lfoot -17.0283 2.00142
ltoes 2.80072
348
root 1.05057 17.3077 2.21374 -0.802009 0.818397 5.39894
lowerback 7.40743 -0.871359 -4.88596
upperback 0.409385 -1.52918 1.04568
thorax -3.57548 -0.6735 3.99267
lowerneck -16.609 -3.08202 -9.30785
upperneck 21.274 -3.02609 5.17593
head 9.71154 -1.57882 2.95909
rclavicle -1.97294e-014 2.38542e-014
rhumerus -32.2284 -14.8651 -78.5484
rradius 33.748
rwrist 5.45537
rhand -15.89 12.3519
rfingers 7.12502
rthumb 10.3063 -17.3755
lclavicle -1.97294e-014 2.38542e-014
lhumerus -27.3721 7.34305 84.2037
lradius 21.8788
lwrist -14.1209
lhand -12.7166 25.9571
lfingers 7.12502
lthumb 13.3664 55.5083
rfemur -31.0942 -3.56547 16.583
rtibia 57.6912
rfoot -9.80961 -13.3027
rtoes 0.000986991
lfemur -5.34284 -1.22281 -30.6186
ltibia 29.6347
lfoot -17.4126 1.86208
ltoes 2.05919
349
root 1.04436 17.308 2.39575 -0.626226 0.902907 5.48501
lowerback 7.25721 -0.947255 -5.08709
upperback 0.375013 -1.63818 1.0929
thorax -3.50886 -0.72545 4.16258
lowerneck -16.4243 -3.02318 -9.10322
upperneck 21.0515 -2.94608 4.90351
head 9.58502 -1.55493 2.83704
rclavicle -1.73937e-014 9.54166e-015
rhumerus -32.4307 -15.2269 -78.3711
rradius 33.2791
rwrist 5.87731
rhand -15.9046 12.8442
rfingers 7.12502
rthumb 10.2922 -16.884
lclavicle -1.73937e-014 9.54166e-015
lhumerus -26.7464 6.68738 84.4004
lradius 22.1577
lwrist -13.8622
lhand -12.2684 26.8572
lfingers 7.12502
lthumb 13.7984 56.3796
rfemur -31.7225 -3.3246 16.51
rtibia 55.2504
rfoot -8.98569 -14.0816
rtoes -0.996501
lfemur -4.52793 -0.944543 -30.6833
ltibia 28.9914
lfoot -17.7603 1.81484
ltoes 1.54241
350
root 1.03662 17.3066 2.57493 -0.47145 0.951236 5.75332
lowerback 7.30275 -0.988431 -5.44715
upperback 0.269356 -1.72847 1.07405
thorax -3.62515 -0.758584 4.35848
lowerneck -16.443 -2.95542 -9.14843
upperneck 21.039 -2.86488 5.01838
head 9.5796 -1.50765 2.89575
rclavicle 2.46493e-014 -1.03368e-014
rhumerus -32.8334 -15.5287 -78.1749
rradius 33.0071
rwrist 6.32669
rhand -15.8678 12.7981
rfingers 7.12502
rthumb 10.3277 -16.9283
lclavicle 2.46493e-014 -1.03368e-014
lhumerus -26.5312 5.86701 84.6115
lradius 22.9207
lwrist -13.4146
lhand -12.4584 27.3462
lfingers 7.12502
lthumb 13.6153 56.881
rfemur -32.28 -3.04691 16.2078
rtibia 52.6738
rfoot -8.24693 -14.6109
rtoes -1.58495
lfemur -3.6727 -0.535677 -30.926
ltibia 28.3009
lfoot -17.9666 1.76665
ltoes 1.34464
351
root 1.02502 17.3036 2.74844 -0.245296 1.08398 5.75254
lowerback 7.17476 -1.07675 -5.57679
upperback 0.267098 -1.84678 1.14633
thorax -3.53579 -0.817638 4.51466
lowerneck -16.76 -2.96528 -9.18351
upperneck 21.2146 -2.86969 5.13044
head 9.70274 -1.4987 2.94197
rclavicle -3.07619e-014 -2.38542e-015
rhumerus -33.1622 -15.656 -78.0928
rradius 33.019
rwrist 6.51562
rhand -15.8578 12.3237
rfingers 7.12502
rthumb 10.3373 -17.4023
lclavicle -3.07619e-014 -2.38542e-015
lhumerus -26.0848 5.11751 84.8017
lradius 23.853
lwrist -13.1167
lhand -12.2294 27.5053
lfingers 7.12502
lthumb 13.8359 57.0251
rfemur -32.7367 -2.6918 16.1731
rtibia 49.9503
rfoot -7.64977 -14.9094
rtoes -0.592599
lfemur -2.8886 -0.264525 -30.8435
ltibia 27.5681
lfoot -18.0584 1.60097
ltoes 1.68685
352
root 1.01647 17.2952 2.92547 -0.048749 1.3673 5.73378
lowerback 7.07149 -1.23092 -5.61694
upperback 0.248274 -2.04728 1.21522
thorax -3.46986 -0.918027 4.62482
lowerneck -16.8821 -3.01229 -9.08002
upperneck 21.1916 -2.91564 4.98257
head 9.71752 -1.52655 2.8652
rclavicle 1.64494e-014 7.15625e-015
rhumerus -33.3856 -15.8479 -77.9491
rradius 32.6931
rwrist 6.86468
rhand -16.1975 12.2415
rfingers 7.12502
rthumb 10.0097 -17.5005
lclavicle 1.64494e-014 7.15625e-015
lhumerus -25.7156 4.39583 84.9501
lradius 24.6446
lwrist -12.7709
lhand -12.1115 26.9353
lfingers 7.12502
lthumb 13.9495 56.4473
rfemur -33.02 -2.57648 16.1061
rtibia 47.1167
rfoot -6.6936 -14.9809
rtoes -0.49219
lfemur -1.96655 -0.19158 -30.7761
ltibia 26.7285
lfoot -18.1275 1.44258
ltoes 1.55396
353
root 1.01363 17.2868 3.11346 0.13085 1.66786 6.0402
lowerback 7.01959 -1.37513 -5.89521
upperback 0.122626 -2.26335 1.17773
thorax -3.537 -1.01581 4.76338
lowerneck -16.7947 -3.02486 -9.00017
upperneck 21.0908 -2.91585 4.79457
head 9.66213 -1.54119 2.78425
rclavicle 1.37658e-014 -3.18055e-015
rhumerus -33.9128 -15.9276 -77.7152
rradius 32.422
rwrist 6.85223
rhand -16.1665 12.5835
rfingers 7.12502
rthumb 10.0395 -17.1571
lclavicle 1.37658e-014 -3.18055e-015
lhumerus -25.4576 3.9538 85.0234
lradius 25.1158
lwrist -12.7309
lhand -12.5713 26.4564
lfingers 7.12502
lthumb 13.5064 55.9984
rfemur -33.2198 -2.51623 15.6039
rtibia 44.2136
rfoot -5.32182 -14.8158
rtoes -0.224769
lfemur -0.898205 -0.186995 -31.1098
ltibia 25.8028
lfoot -18.0066 1.55052
ltoes 0.6106
354
root 1.00667 17.2834 3.30737 0.342259 1.79548 6.44805
lowerback 6.69315 -1.47024 -6.37256
upperback 0.140506 -2.4084 1.11999
thorax -3.30057 -1.0898 4.97163
lowerneck -16.7741 -2.93881 -9.03189
upperneck 20.9718 -2.79739 4.84169
head 9.6081 -1.482 2.82066
rclavicle 2.32081e-014 -1.43125e-014
rhumerus -34.0896 -16.3183 -77.4813
rradius 31.9136
rwrist 7.1844
rhand -16.1177 12.839
rfingers 7.12502
rthumb 10.0866 -16.8992
lclavicle 2.32081e-014 -1.43125e-014
lhumerus -24.8307 3.39457 85.1133
lradius 25.5014
lwrist -12.2077
lhand -12.7337 26.3458
lfingers 7.12502
lthumb 13.3499 55.8981
rfemur -33.4293 -2.09825 14.9361
rtibia 41.2396
rfoot -3.863 -14.6855
rtoes 0.911006
lfemur 0.135795 -0.0625172 -31.5202
ltibia 24.7645
lfoot -17.4613 1.68391
ltoes 1.57107
355
root 0.996469 17.2787 3.49423 0.568537 1.87483 6.7732
lowerback 6.47613 -1.52016 -6.78671
upperback 0.150403 -2.49232 1.07708
thorax -3.14228 -1.13194 5.15819
lowerneck -16.9807 -2.87553 -9.23923
upperneck 21.0024 -2.72347 5.21945
head 9.65884 -1.41968 2.99861
rclavicle 2.97183e-014 1.43125e-014
rhumerus -34.1267 -16.8504 -77.2633
rradius 31.2328
rwrist 7.52386
rhand -16.1714 13.1685
rfingers 7.12502
rthumb 10.0348 -16.5723
lclavicle 2.97183e-014 1.43125e-014
lhumerus -24.3048 2.71102 85.2079
lradius 26.1572
lwrist -11.5533
lhand -12.5579 26.683
lfingers 7.12502
lthumb 13.5194 56.2242
rfemur -33.6 -1.54452 14.3227
rtibia 38.2036
rfoot -2.18254 -14.3992
rtoes 1.26858
lfemur 1.10489 0.034959 -31.815
ltibia 23.7136
lfoot -16.9331 1.80714
ltoes 3.27831
356
root 0.986028 17.2702 3.67764 0.734509 2.21757 6.87159
lowerback 6.51976 -1.64402 -6.91162
upperback 0.103849 -2.6707 1.09565
thorax -3.18442 -1.21575 5.26535
lowerneck -17.426 -2.9377 -9.16281
upperneck 21.1868 -2.76262 5.09713
head 9.80759 -1.44265 2.93858
rclavicle 5.96354e-016 3.97569e-015
rhumerus -34.389 -17.2366 -77.0493
rradius 30.7671
rwrist 7.42975
rhand -16.0691 13.427
rfingers 7.12502
rthumb 10.1335 -16.309
lclavicle 5.96354e-016 3.97569e-015
lhumerus -23.8986 2.28938 85.2737
lradius 26.7477
lwrist -11.3062
lhand -12.3686 26.6601
lfingers 7.12502
lthumb 13.7018 56.189
rfemur -33.4707 -1.01405 13.8689
rtibia 35.0685
rfoot -0.640974 -14.3162
rtoes 2.93077
lfemur 2.11159 0.0389502 -31.8282
ltibia 22.7432
lfoot -16.8667 1.82784
ltoes 1.9692
357
root 0.975217 17.2705 3.86572 0.932858 2.5272 6.83509
lowerback 6.33003 -1.7867 -6.8843
upperback 0.123163 -2.84361 1.11166
thorax -3.0338 -1.3089 5.27052
lowerneck -17.5909 -3.03861 -9.11514
upperneck 21.1706 -2.88451 5.03098
head 9.84091 -1.50052 2.88934
rclavicle 9.34288e-015 0
rhumerus -34.6465 -17.7357 -76.8516
rradius 30.345
rwrist 7.52165
rhand -15.9913 14.2867
rfingers 7.12502
rthumb 10.2085 -15.4456
lclavicle 9.34288e-015 0
lhumerus -23.4049 1.60708 85.2792
lradius 27.2613
lwrist -10.7478
lhand -12.8572 26.2645
lfingers 7.12502
lthumb 13.2308 55.8246
rfemur -33.1943 -0.503431 13.5845
rtibia 31.8528
rfoot 0.310682 -14.0418
rtoes 5.78343
lfemur 3.01874 -0.0785494 -31.684
ltibia 21.9016
lfoot -16.8841 1.5499
ltoes 2.04301
